<?xml version="1.0" encoding="iso-8859-1"?>
<!-- Generator: Adobe Illustrator 16.0.0, SVG Export Plug-In . SVG Version: 6.00 Build 0)  -->
<!DOCTYPE svg PUBLIC "-//W3C//DTD SVG 1.1//EN" "http://www.w3.org/Graphics/SVG/1.1/DTD/svg11.dtd">
<svg version="1.1" id="Capa_1" xmlns="http://www.w3.org/2000/svg" xmlns:xlink="http://www.w3.org/1999/xlink" x="0px" y="0px"
	 width="445.337px" height="445.337px" viewBox="0 0 445.337 445.337" style="enable-background:new 0 0 445.337 445.337;"
	 xml:space="preserve">
<g>
	<g id="Layer_8">
		<path d="M360.503,0c-27.548,0-49.883,22.335-49.883,49.882c0,13.673,5.518,26.049,14.426,35.061l-17.891,72.933
			c-1.26-0.317-2.563-0.524-3.934-0.524c-9.133,0-16.556,7.426-16.556,16.562c0,9.134,7.423,16.572,16.556,16.572
			c9.134,0,16.575-7.438,16.575-16.572c0-5.507-2.734-10.363-6.887-13.381l44.067-60.937c1.175,0.073,2.338,0.167,3.52,0.167
			c27.547,0,49.882-22.335,49.882-49.882S388.044,0,360.503,0z M313.562,173.921c0,5.7-4.64,10.336-10.34,10.336
			c-5.699,0-10.32-4.637-10.32-10.336s4.621-10.327,10.32-10.327c0.859,0,1.675,0.131,2.467,0.332l-2.467,10.002l6.047-8.346
			C311.856,167.455,313.562,170.484,313.562,173.921z M395.583,65.102c-4.58,0.32-8.915-8.242-9.67-19.117
			c-0.768-10.875,2.338-19.948,6.904-20.277c4.586-0.319,8.915,8.242,9.683,19.117C403.267,55.707,400.174,64.792,395.583,65.102z
			 M375.823,347.069h-75.858c-5.164,0-9.354,4.189-9.354,9.354v70.207H53.67V87.842h254.544l3.154-12.851
			c-1.352-1.888-2.558-3.857-3.702-5.855H44.312c-5.164,0-9.353,4.189-9.353,9.353v357.494c0,5.164,4.189,9.354,9.353,9.354h264.684
			c2.368,0,4.64-0.902,6.369-2.51l76.188-70.963c1.905-1.777,2.978-4.25,2.978-6.844V98.062c-5.853,2.555-12.124,4.309-18.706,5.137
			V347.069z M309.317,422.903v-57.128h61.33L309.317,422.903z"/>
	</g>
</g>
<g>
</g>
<g>
</g>
<g>
</g>
<g>
</g>
<g>
</g>
<g>
</g>
<g>
</g>
<g>
</g>
<g>
</g>
<g>
</g>
<g>
</g>
<g>
</g>
<g>
</g>
<g>
</g>
<g>
</g>
</svg>
